<svg xmlns="http://www.w3.org/2000/svg" viewBox="0 0 960 540" role="img" aria-labelledby="title desc">
<title id="title">Circle of Fifths</title>
<desc id="desc">Key centers move by stable fifth relations.</desc>
<style>
  :root{color-scheme:light dark}.bg{fill:#fff8ed}.grid{stroke:#0c0b0d;stroke-opacity:.06}.ink{fill:#0c0b0d}.muted{fill:#756c62}.rail{fill:none;stroke-linecap:square;stroke-width:18;mix-blend-mode:multiply}.r0{stroke:#ff4f7a}.r1{stroke:#caff55}.r2{stroke:#ffd05a}.tick{fill:#0c0b0d}.node rect{filter:url(#soft)}.node text{fill:#0c0b0d;font:700 18px ui-sans-serif,-apple-system,BlinkMacSystemFont,'Segoe UI',sans-serif;text-anchor:middle}.mono{font:600 13px ui-monospace,SFMono-Regular,Menlo,monospace}@media(prefers-color-scheme:dark){.bg{fill:#08070a}.grid{stroke:#fff8ed;stroke-opacity:.07}.ink{fill:#fff8ed}.muted{fill:#b5aca1}.rail{mix-blend-mode:screen;opacity:.88}.tick{fill:#fff8ed}.node text{fill:#08070a}}
</style>
<defs><filter id="soft" x="-30%" y="-30%" width="160%" height="160%"><feDropShadow dx="0" dy="18" stdDeviation="18" flood-color="#000" flood-opacity=".22"/></filter></defs>
<rect class="bg" width="960" height="540"/>
<path class="grid" d="M0 98H960M0 178H960M0 258H960M0 338H960M0 418H960M118 0V540M238 0V540M358 0V540M478 0V540M598 0V540M718 0V540M838 0V540"/>
<rect class="tick" x="99" y="92" width="2" height="346" opacity="0.16"/>
  <rect class="tick" x="225.66666666666669" y="92" width="2" height="346" opacity="0.24"/>
  <rect class="tick" x="352.33333333333337" y="92" width="2" height="346" opacity="0.32"/>
  <rect class="tick" x="479" y="92" width="2" height="346" opacity="0.16"/>
  <rect class="tick" x="605.6666666666667" y="92" width="2" height="346" opacity="0.24"/>
  <rect class="tick" x="732.3333333333334" y="92" width="2" height="346" opacity="0.32"/>
  <rect class="tick" x="859" y="92" width="2" height="346" opacity="0.16"/>
<text class="ink" x="72" y="74" font-family="ui-sans-serif,-apple-system,BlinkMacSystemFont,'Segoe UI',sans-serif" font-size="42" font-weight="760">Circle of Fifths</text>
<text class="muted" x="74" y="108" font-family="ui-sans-serif,-apple-system,BlinkMacSystemFont,'Segoe UI',sans-serif" font-size="17">Key centers move by stable fifth relations.</text>
<text class="muted mono" x="74" y="482">relative structure -> signal -> render</text>
<path class="rail r0" d="M 100.0 296.0 L 226.7 354.6 L 353.3 346.7 L 480.0 260.1 L 606.7 224.0 L 733.3 261.1 L 860.0 347.5"/>
  <path class="rail r1" d="M 100.0 330.0 L 226.7 396.6 L 353.3 380.7 L 480.0 302.1 L 606.7 258.0 L 733.3 303.1 L 860.0 381.5"/>
  <path class="rail r2" d="M 100.0 364.0 L 226.7 438.6 L 353.3 414.7 L 480.0 344.1 L 606.7 292.0 L 733.3 345.1 L 860.0 415.5"/>
<g class="node" transform="translate(42 292)"><rect fill="#00d29e" width="116" height="76"/><text x="58" y="45">C</text></g>
  <g class="node" transform="translate(168.66666666666669 358.57163289337745)"><rect fill="#a970ff" width="116" height="76"/><text x="58" y="45">G</text></g>
  <g class="node" transform="translate(295.33333333333337 342.7175751354527)"><rect fill="#ff4f7a" width="116" height="76"/><text x="58" y="45">D</text></g>
  <g class="node" transform="translate(422 264.0675339081954)"><rect fill="#caff55" width="116" height="76"/><text x="58" y="45">A</text></g>
  <g class="node" transform="translate(548.6666666666667 220.00208538423823)"><rect fill="#ffd05a" width="116" height="76"/><text x="58" y="45">E</text></g>
  <g class="node" transform="translate(675.3333333333334 265.08088013222294)"><rect fill="#00d29e" width="116" height="76"/><text x="58" y="45">B</text></g>
  <g class="node" transform="translate(802 343.4895926002738)"><rect fill="#a970ff" width="116" height="76"/><text x="58" y="45">F#</text></g>
</svg>
