<svg xmlns="http://www.w3.org/2000/svg" viewBox="0 0 960 540" role="img" aria-labelledby="title desc">
<title id="title">Detuning</title>
<desc id="desc">Tiny frequency offsets create slow beating and width.</desc>
<defs><marker id="arrow" viewBox="0 0 10 10" refX="9" refY="5" markerWidth="8" markerHeight="8" orient="auto"><path d="M 0 0 L 10 5 L 0 10 Z" fill="context-stroke"/></marker></defs>
<style>
:root{color-scheme:light dark}.bg{fill:#fbfbfd}.panel{fill:#fff;stroke:#d8d8df}.soft{fill:#f2f2f7}.ink{fill:#17171b}.muted{fill:#6e6e73}.label{fill:#242428;font:650 16px -apple-system,BlinkMacSystemFont,"SF Pro Text","Segoe UI",sans-serif}.small{fill:#6e6e73;font:600 12px -apple-system,BlinkMacSystemFont,"SF Pro Text","Segoe UI",sans-serif}.title{fill:#111115;font:760 34px -apple-system,BlinkMacSystemFont,"SF Pro Display","Segoe UI",sans-serif}.desc{fill:#6e6e73;font:500 16px -apple-system,BlinkMacSystemFont,"SF Pro Text","Segoe UI",sans-serif}.mono{fill:#55555b;font:650 13px ui-monospace,SFMono-Regular,Menlo,monospace}.axis{stroke:#8e8e93;stroke-width:1.5}.arrow{stroke:#55555b;stroke-width:2.2;fill:none;marker-end:url(#arrow)}.line{fill:none;stroke:#17171b;stroke-width:3;stroke-linecap:round;stroke-linejoin:round}.hot{stroke:#ff4f7a}.mint{stroke:#00a887}.gold{stroke:#c78800}.violet{stroke:#8e6bff}.hotf{fill:#ff4f7a}.mintf{fill:#00a887}.goldf{fill:#f2a900}.violetf{fill:#8e6bff}.darkf{fill:#242428}.lightf{fill:#fff}.fade{opacity:.22}.fillHot{fill:#ff4f7a;opacity:.12}.fillMint{fill:#00a887;opacity:.13}.fillGold{fill:#f2a900;opacity:.16}.fillViolet{fill:#8e6bff;opacity:.13}.mid{text-anchor:middle}.right{text-anchor:end}@media(prefers-color-scheme:dark){.bg{fill:#08090d}.panel{fill:#121319;stroke:#2d2e36}.soft{fill:#1b1c23}.ink,.title{fill:#f5f5f7}.muted,.desc,.small,.mono{fill:#a1a1aa}.label{fill:#f1f1f4}.axis{stroke:#696a73}.arrow{stroke:#bbbcc6}.line{stroke:#f5f5f7}.darkf{fill:#f5f5f7}.lightf{fill:#121319}}
</style>
<rect class="bg" width="960" height="540"/>
<text class="title" x="64" y="62" >Detuning</text>
<text class="desc" x="66" y="92" >Tiny frequency offsets create slow beating and width.</text>
<rect class="panel" x="86" y="142" width="770" height="292" rx="16"/><path class="line mint" d="M 120 225 L 124.1 221.4 L 128.3 217.9 L 132.4 214.5 L 136.5 211.4 L 140.6 208.7 L 144.8 206.3 L 148.9 204.4 L 153 203 L 157.1 202.2 L 161.3 201.9 L 165.4 202.2 L 169.5 203 L 173.6 204.4 L 177.8 206.3 L 181.9 208.7 L 186 211.4 L 190.1 214.5 L 194.3 217.9 L 198.4 221.4 L 202.5 225 L 206.6 228.6 L 210.8 232.1 L 214.9 235.5 L 219 238.6 L 223.1 241.3 L 227.3 243.7 L 231.4 245.6 L 235.5 247 L 239.6 247.8 L 243.8 248.1 L 247.9 247.8 L 252 247 L 256.1 245.6 L 260.3 243.7 L 264.4 241.3 L 268.5 238.6 L 272.6 235.5 L 276.8 232.1 L 280.9 228.6 L 285 225 L 289.1 221.4 L 293.3 217.9 L 297.4 214.5 L 301.5 211.4 L 305.6 208.7 L 309.8 206.3 L 313.9 204.4 L 318 203 L 322.1 202.2 L 326.3 201.9 L 330.4 202.2 L 334.5 203 L 338.6 204.4 L 342.8 206.3 L 346.9 208.7 L 351 211.4 L 355.1 214.5 L 359.3 217.9 L 363.4 221.4 L 367.5 225 L 371.6 228.6 L 375.8 232.1 L 379.9 235.5 L 384 238.6 L 388.1 241.3 L 392.3 243.7 L 396.4 245.6 L 400.5 247 L 404.6 247.8 L 408.8 248.1 L 412.9 247.8 L 417 247 L 421.1 245.6 L 425.3 243.7 L 429.4 241.3 L 433.5 238.6 L 437.6 235.5 L 441.8 232.1 L 445.9 228.6 L 450 225" /><path class="line hot" d="M 120 249 L 124.1 245.4 L 128.3 241.9 L 132.4 238.5 L 136.5 235.4 L 140.6 232.7 L 144.8 230.3 L 148.9 228.4 L 153 227 L 157.1 226.2 L 161.3 225.9 L 165.4 226.2 L 169.5 227 L 173.6 228.4 L 177.8 230.3 L 181.9 232.7 L 186 235.4 L 190.1 238.5 L 194.3 241.9 L 198.4 245.4 L 202.5 249 L 206.6 252.6 L 210.8 256.1 L 214.9 259.5 L 219 262.6 L 223.1 265.3 L 227.3 267.7 L 231.4 269.6 L 235.5 271 L 239.6 271.8 L 243.8 272.1 L 247.9 271.8 L 252 271 L 256.1 269.6 L 260.3 267.7 L 264.4 265.3 L 268.5 262.6 L 272.6 259.5 L 276.8 256.1 L 280.9 252.6 L 285 249 L 289.1 245.4 L 293.3 241.9 L 297.4 238.5 L 301.5 235.4 L 305.6 232.7 L 309.8 230.3 L 313.9 228.4 L 318 227 L 322.1 226.2 L 326.3 225.9 L 330.4 226.2 L 334.5 227 L 338.6 228.4 L 342.8 230.3 L 346.9 232.7 L 351 235.4 L 355.1 238.5 L 359.3 241.9 L 363.4 245.4 L 367.5 249 L 371.6 252.6 L 375.8 256.1 L 379.9 259.5 L 384 262.6 L 388.1 265.3 L 392.3 267.7 L 396.4 269.6 L 400.5 271 L 404.6 271.8 L 408.8 272.1 L 412.9 271.8 L 417 271 L 421.1 269.6 L 425.3 267.7 L 429.4 265.3 L 433.5 262.6 L 437.6 259.5 L 441.8 256.1 L 445.9 252.6 L 450 249" /><line class="arrow" x1="470" y1="232" x2="560" y2="232" /><path class="line violet" d="M 570 236 C 610 164 660 164 700 236 C 740 308 790 308 830 236" /><path class="line violet fade" d="M 570 236 C 610 308 660 308 700 236 C 740 164 790 164 830 236" /><text class="small" x="190" y="172" >osc A: -7 cents</text><text class="small" x="190" y="312" >osc B: +7 cents</text><text class="small mid" x="682" y="350" >combined amplitude breathes</text>
</svg>
