<svg xmlns="http://www.w3.org/2000/svg" viewBox="0 0 512 512">
  <defs>
    <!-- Score/Ink palette -->
    <linearGradient id="inkGrad" x1="0%" y1="0%" x2="100%" y2="100%">
      <stop offset="0%" style="stop-color:#44403c" />
      <stop offset="100%" style="stop-color:#292524" />
    </linearGradient>
    <linearGradient id="sepiaGrad" x1="0%" y1="0%" x2="100%" y2="100%">
      <stop offset="0%" style="stop-color:#d97706" />
      <stop offset="100%" style="stop-color:#b45309" />
    </linearGradient>
  </defs>

  <!-- Connection lines (intervals/relationships) -->
  <g stroke="url(#inkGrad)" stroke-width="6" fill="none">
    <line x1="96" y1="352" x2="256" y2="176" />
    <line x1="256" y1="176" x2="416" y2="304" />
    <line x1="96" y1="352" x2="416" y2="304" stroke-dasharray="12,8" opacity="0.4" />
  </g>

  <!-- Lambda symbol (functional) - ink style -->
  <g fill="url(#inkGrad)">
    <polygon points="256,80 208,80 256,240 304,80" />
    <rect x="172" y="180" width="168" height="20" rx="10" transform="rotate(-25 256 192)" />
  </g>

  <!-- Note heads (elliptical, tilted) -->
  <ellipse cx="96" cy="352" rx="36" ry="28" fill="url(#inkGrad)" transform="rotate(-20 96 352)" />
  <ellipse cx="256" cy="176" rx="36" ry="28" fill="url(#sepiaGrad)" transform="rotate(-20 256 176)" />
  <ellipse cx="416" cy="304" rx="36" ry="28" fill="url(#inkGrad)" transform="rotate(-20 416 304)" />

  <!-- Pipe symbol |> - calligraphic -->
  <g fill="#44403c" opacity="0.8">
    <rect x="140" y="400" width="10" height="56" rx="5" />
    <polygon points="164,428 208,428 164,456" />
  </g>
</svg>
