<svg xmlns="http://www.w3.org/2000/svg" viewBox="0 0 512 512">
  <defs>
    <linearGradient id="grad1" x1="0%" y1="0%" x2="100%" y2="100%">
      <stop offset="0%" style="stop-color:#6366f1" />
      <stop offset="100%" style="stop-color:#a855f7" />
    </linearGradient>
    <linearGradient id="grad2" x1="0%" y1="100%" x2="100%" y2="0%">
      <stop offset="0%" style="stop-color:#ec4899" />
      <stop offset="100%" style="stop-color:#f472b6" />
    </linearGradient>
  </defs>

  <!-- Connection lines (intervals/relationships) -->
  <g stroke="url(#grad1)" stroke-width="8" fill="none">
    <line x1="96" y1="352" x2="256" y2="176" />
    <line x1="256" y1="176" x2="416" y2="304" />
    <line x1="96" y1="352" x2="416" y2="304" stroke-dasharray="12,8" opacity="0.5" />
  </g>

  <!-- Lambda symbol (functional) -->
  <g fill="url(#grad1)">
    <polygon points="256,80 208,80 256,240 304,80" />
    <rect x="172" y="180" width="168" height="24" rx="12" transform="rotate(-25 256 192)" />
  </g>

  <!-- Nodes (relative positions) -->
  <circle cx="96" cy="352" r="40" fill="url(#grad2)" />
  <circle cx="256" cy="176" r="40" fill="url(#grad1)" />
  <circle cx="416" cy="304" r="40" fill="url(#grad2)" />

  <!-- Inner dots (hollow centers) -->
  <circle cx="96" cy="352" r="20" fill="white" />
  <circle cx="256" cy="176" r="20" fill="white" />
  <circle cx="416" cy="304" r="20" fill="white" />

  <!-- Pipe symbol |> -->
  <g fill="url(#grad1)" opacity="0.8">
    <rect x="140" y="400" width="12" height="64" rx="6" />
    <polygon points="168,432 216,432 168,464" />
  </g>
</svg>
